<svg width="42" height="42" viewBox="0 0 42 42" fill="none" xmlns="http://www.w3.org/2000/svg">
<path d="M0.170898 21.0043C0.173322 31.253 7.6259 39.9794 17.748 41.5856V27.0251H12.4626V21.0043H17.7542V16.421C17.5177 14.2492 18.2595 12.0847 19.7785 10.5146C21.2975 8.94445 23.4362 8.13141 25.6146 8.29597C27.1783 8.32122 28.738 8.46048 30.2813 8.71264V13.8356H27.648C26.7414 13.7168 25.83 14.0162 25.1704 14.6494C24.5109 15.2827 24.1746 16.1811 24.2563 17.0918V21.0043H30.0292L29.1063 27.0272H24.2563V41.5856C35.2031 39.8555 42.8794 29.858 41.724 18.8357C40.5687 7.8134 30.9861 -0.375015 19.9184 0.202588C8.85082 0.780191 0.172658 9.92161 0.170898 21.0043Z" fill="#2E3A59"/>
</svg>
