<svg width="38" height="38" viewBox="0 0 38 38" fill="none" xmlns="http://www.w3.org/2000/svg">
<path d="M19.0039 37.8348C13.8789 37.8348 13.2747 37.8077 11.2747 37.7202C9.7151 37.6689 8.17564 37.3518 6.72266 36.7827C4.20872 35.8043 2.22087 33.8157 1.24349 31.3014C0.696211 29.8432 0.401027 28.3024 0.370573 26.7452C0.253906 24.7493 0.253906 24.0952 0.253906 19.0098C0.253906 13.8702 0.28099 13.2702 0.370573 11.2806C0.401693 9.72543 0.696867 8.18686 1.24349 6.7306C2.2198 4.21295 4.21089 2.22262 6.72891 1.24727C8.18441 0.697687 9.72338 0.401733 11.2789 0.372266C13.2685 0.259766 13.9227 0.259766 19.0039 0.259766C24.1706 0.259766 24.7643 0.286849 26.7331 0.372266C28.2926 0.401988 29.8357 0.697911 31.2956 1.24727C33.8129 2.22373 35.8036 4.21367 36.781 6.7306C37.3375 8.20809 37.6342 9.77071 37.6581 11.3493C37.7747 13.3452 37.7747 13.9973 37.7747 19.0806C37.7747 24.1639 37.7456 24.8306 37.6581 26.8035C37.6271 28.3623 37.3312 29.9044 36.7831 31.3639C35.8032 33.88 33.8124 35.8693 31.2956 36.8473C29.8378 37.3935 28.2979 37.6886 26.7414 37.7202C24.7518 37.8348 24.0997 37.8348 19.0039 37.8348ZM18.9331 3.55768C13.8372 3.55768 13.3081 3.58268 11.3185 3.67227C10.131 3.688 8.95491 3.90714 7.84141 4.32018C6.19714 4.94937 4.89605 6.24516 4.26016 7.88685C3.84393 9.01247 3.62476 10.2014 3.61224 11.4014C3.50182 13.4202 3.50182 13.9493 3.50182 19.0098C3.50182 24.0098 3.52057 24.616 3.61224 26.6223C3.63089 27.8102 3.84994 28.9864 4.26016 30.1014C4.89698 31.742 6.19785 33.0369 7.84141 33.666C8.95415 34.0818 10.1307 34.301 11.3185 34.3139C13.3352 34.4306 13.8664 34.4306 18.9331 34.4306C24.0435 34.4306 24.5727 34.4056 26.5456 34.3139C27.7339 34.2995 28.9109 34.0803 30.0247 33.666C31.6591 33.0314 32.9517 31.7395 33.5872 30.1056C34.0027 28.979 34.2218 27.7896 34.2352 26.5889H34.2581C34.3477 24.5973 34.3477 24.066 34.3477 18.9764C34.3477 13.8868 34.3247 13.3514 34.2352 11.3618C34.2165 10.1753 33.9974 9.00041 33.5872 7.88685C32.9531 6.25054 31.6603 4.95621 30.0247 4.32018C28.9111 3.90506 27.734 3.68585 26.5456 3.67227C24.531 3.55768 24.0039 3.55768 18.9331 3.55768ZM19.0039 28.6327C15.1081 28.6352 11.5944 26.2905 10.1015 22.692C8.60871 19.0935 9.4308 14.95 12.1844 12.1941C14.938 9.43808 19.0807 8.61241 22.6805 10.1021C26.2803 11.5918 28.6281 15.1035 28.6289 18.9993C28.6232 24.3141 24.3186 28.6224 19.0039 28.6327ZM19.0039 12.7452C15.5521 12.7452 12.7539 15.5434 12.7539 18.9952C12.7539 22.447 15.5521 25.2452 19.0039 25.2452C22.4557 25.2452 25.2539 22.447 25.2539 18.9952C25.2459 15.5467 22.4524 12.7532 19.0039 12.7452ZM29.0039 11.2598C27.7652 11.2552 26.7641 10.2485 26.7664 9.00978C26.7687 7.77107 27.7735 6.76811 29.0122 6.76811C30.2509 6.76811 31.2558 7.77106 31.2581 9.00976C31.2586 9.60739 31.0212 10.1806 30.5982 10.6028C30.1752 11.025 29.6015 11.2614 29.0039 11.2598Z" fill="#2E3A59"/>
</svg>
