<svg width="42" height="42" viewBox="0 0 42 42" fill="none" xmlns="http://www.w3.org/2000/svg">
<path d="M0 21.0003C0 29.5995 5.17092 36.9869 12.5703 40.2349C12.5112 38.7685 12.5598 37.0081 12.9358 35.4126C13.3396 33.7078 15.6379 23.9695 15.6379 23.9695C15.6379 23.9695 14.9671 22.6286 14.9671 20.6469C14.9671 17.5348 16.7708 15.2106 19.0171 15.2106C20.9273 15.2106 21.8502 16.6453 21.8502 18.3634C21.8502 20.2835 20.6254 23.1558 19.9956 25.8161C19.4695 28.0437 21.1125 29.8607 23.3102 29.8607C27.289 29.8607 29.9688 24.7503 29.9688 18.6954C29.9688 14.0928 26.8688 10.6478 21.2305 10.6478C14.8603 10.6478 10.8918 15.3984 10.8918 20.7049C10.8918 22.5345 11.4312 23.8247 12.2761 24.8238C12.6646 25.2827 12.7186 25.4673 12.578 25.9942C12.4773 26.3806 12.246 27.3108 12.1501 27.6795C12.0104 28.2114 11.5794 28.4015 11.0987 28.2051C8.16457 27.0073 6.79809 23.7941 6.79809 20.1821C6.79809 14.2167 11.8292 7.06355 21.8069 7.06355C29.8246 7.06355 35.1017 12.8655 35.1017 19.0934C35.1017 27.3315 30.5217 33.486 23.7705 33.486C21.5033 33.486 19.3707 32.2604 18.6401 30.8684C18.6401 30.8684 17.421 35.7069 17.1627 36.6412C16.7175 38.2604 15.846 39.8787 15.0491 41.14C16.9378 41.6975 18.933 42.0011 21.0008 42.0011C32.5974 42.0011 42.0002 32.5989 42.0002 21.0003C42.0002 9.40226 32.5974 0 21.0008 0C9.40308 0 0 9.40226 0 21.0003Z" fill="#2E3A59"/>
</svg>
